<svg width="24" height="24" viewBox="0 0 24 24" fill="none" xmlns="http://www.w3.org/2000/svg">
<circle cx="12" cy="12" r="12" fill="#555A7B"/>
<path d="M18.2541 16.0278C18.2154 15.735 18.0461 15.4826 17.7899 15.3353L14.7801 13.6047C14.4115 13.3927 13.9438 13.4544 13.6429 13.7549L13.0501 14.3469C12.8923 14.5045 12.6427 14.5184 12.4697 14.3793C12.0023 14.0038 11.5421 13.5904 11.102 13.1508C10.6618 12.7113 10.2479 12.2518 9.87184 11.785C9.73253 11.6121 9.74647 11.3629 9.90428 11.2053L10.4971 10.6133C10.7979 10.3129 10.8598 9.84592 10.6475 9.47771L8.91459 6.472C8.76704 6.21607 8.51429 6.04709 8.22113 6.00835C7.92794 5.96954 7.63986 6.06719 7.43075 6.27602L6.53748 7.1681C5.91403 7.79074 5.90401 8.92965 6.50929 10.3751C7.09129 11.7649 8.17742 13.2949 9.56753 14.6832C10.9577 16.0715 12.4898 17.1561 13.8815 17.7373C14.594 18.0349 15.232 18.1835 15.7707 18.1835C16.3263 18.1835 16.7763 18.0253 17.0928 17.7091L17.9861 16.8171C18.1952 16.6082 18.2929 16.3205 18.2541 16.0278ZM14.5829 13.9467L17.5927 15.6773C17.7415 15.7629 17.8398 15.9095 17.8623 16.0795C17.8812 16.2222 17.8441 16.3628 17.7599 16.476L13.76 14.1962L13.9224 14.034C14.0971 13.8595 14.3688 13.8236 14.5829 13.9467ZM8.16927 6.39966C8.33957 6.42216 8.48636 6.52031 8.57205 6.66896L10.305 9.67467C10.4283 9.88852 10.3923 10.1598 10.2176 10.3342L10.0684 10.4832L7.773 6.50189C7.86683 6.4325 7.97906 6.39482 8.09605 6.39482C8.12032 6.39482 8.14479 6.39643 8.16927 6.39966ZM16.8133 17.43C16.318 17.9247 15.305 17.9039 14.034 17.3731C12.6886 16.8113 11.2017 15.7569 9.84705 14.4041C8.49242 13.0513 7.43655 11.5664 6.87394 10.2228C6.34239 8.95352 6.32165 7.94186 6.81697 7.44719L7.4801 6.78492L9.77896 10.7723L9.62479 10.9263C9.32401 11.2267 9.29782 11.7022 9.5639 12.0325C9.94883 12.5102 10.3723 12.9804 10.8224 13.43C11.2727 13.8795 11.7435 14.3024 12.2218 14.6868C12.5525 14.9525 13.0287 14.9264 13.3296 14.626L13.4702 14.4855L17.4758 16.7685L16.8133 17.43Z" fill="white"/>
</svg>
